HIERARCHY
ROOT Hips
{
	OFFSET 0.0000 0.0000 0.0000
	CHANNELS 6 Xposition Yposition Zposition Zrotation Xrotation Yrotation
	JOINT Ab
	{
		OFFSET -0.0000 8.1305 -0.0000
		CHANNELS 3 Zrotation Xrotation Yrotation
		JOINT Chest
		{
			OFFSET -0.0000 26.2902 -0.0000
			CHANNELS 3 Zrotation Xrotation Yrotation
			JOINT Neck
			{
				OFFSET -0.0000 26.2902 0.0000
				CHANNELS 3 Zrotation Xrotation Yrotation
				JOINT Head
				{
					OFFSET -0.0000 10.8167 0.0000
					CHANNELS 3 Zrotation Xrotation Yrotation
					End Site
					{
						OFFSET -0.0000 16.7167 0.0000
					}
				}
			}
			JOINT LeftCollar
			{
				OFFSET -0.0000 26.2902 0.0000
				CHANNELS 3 Zrotation Xrotation Yrotation
				JOINT LeftShoulder
				{
					OFFSET 19.6667 -0.0000 0.0000
					CHANNELS 3 Zrotation Xrotation Yrotation
					JOINT LeftElbow
					{
						OFFSET 27.2190 0.0000 0.0000
						CHANNELS 3 Zrotation Xrotation Yrotation
						JOINT LeftWrist
						{
							OFFSET 30.7431 0.0000 0.0000
							CHANNELS 3 Zrotation Xrotation Yrotation
							End Site
							{
								OFFSET 0.0000 -14.7500 0.0000
							}
						}
					}
				}
			}
			JOINT RightCollar
			{
				OFFSET -0.0000 26.2902 0.0000
				CHANNELS 3 Zrotation Xrotation Yrotation
				JOINT RightShoulder
				{
					OFFSET -19.6667 0.0000 0.0000
					CHANNELS 3 Zrotation Xrotation Yrotation
					JOINT RightElbow
					{
						OFFSET -27.2190 0.0000 0.0000
						CHANNELS 3 Zrotation Xrotation Yrotation
						JOINT RightWrist
						{
							OFFSET -30.7431 0.0000 0.0000
							CHANNELS 3 Zrotation Xrotation Yrotation
							End Site
							{
								OFFSET -0.0000 -14.7500 0.0000
							}
						}
					}
				}
			}
		}
	}
	JOINT LeftHip
	{
		OFFSET 11.8000 0.0000 0.0000
		CHANNELS 3 Zrotation Xrotation Yrotation
		JOINT LeftKnee
		{
			OFFSET -0.0000 -39.7832 0.0000
			CHANNELS 3 Zrotation Xrotation Yrotation
			JOINT LeftAnkle
			{
				OFFSET -0.0000 -41.7317 0.0000
				CHANNELS 3 Zrotation Xrotation Yrotation
				End Site
				{
					OFFSET -0.0000 -4.9167 16.7167
				}
			}
		}
	}
	JOINT RightHip
	{
		OFFSET -11.8000 0.0000 0.0000
		CHANNELS 3 Zrotation Xrotation Yrotation
		JOINT RightKnee
		{
			OFFSET -0.0000 -39.7832 0.0000
			CHANNELS 3 Zrotation Xrotation Yrotation
			JOINT RightAnkle
			{
				OFFSET -0.0000 -41.7317 0.0000
				CHANNELS 3 Zrotation Xrotation Yrotation
				End Site
				{
					OFFSET -0.0000 -4.9167 16.7167
				}
			}
		}
	}
}
MOTION
Frames: 17
Frame Time: 0.010000
-9.1133 93.1692 120.6126 357.4693 343.9799 203.5622 3.6454 349.4862 0.2044 3.0361 11.2805 359.5681 345.7031 344.5110 351.1161 4.9982 6.1213 352.7956 339.7586 357.4963 13.8250 318.0986 58.0401 341.5279 12.0352 355.4786 318.9992 89.6413 356.2799 347.6315 26.2580 356.2951 344.2175 41.9157 43.3736 7.8732 335.2471 351.9871 35.3189 270.0203 355.7795 3.3438 357.0660 1.5750 358.0256 358.6182 6.7712 4.8094 346.3111 351.2097 9.3180 345.7312 335.1758 2.7934 12.5745 22.2728 13.7270 349.8297 346.8701 312.3047 
-9.0578 93.2349 120.3920 357.3400 343.8770 203.7095 3.6960 349.5939 0.1285 2.9916 11.1485 359.4980 345.8317 344.6311 351.0965 5.0450 6.2243 352.7390 339.8205 357.5404 13.8635 318.3858 58.1801 341.1032 12.1000 355.4594 318.8407 90.6622 355.8539 348.7049 26.4957 356.2275 343.9459 40.9974 44.2813 8.4237 334.8740 351.8476 35.0824 269.8908 355.7521 2.7634 356.9766 1.4834 357.6645 358.6393 6.9628 4.8778 346.2899 351.4078 9.4196 345.6664 335.3756 2.9521 12.5927 22.0970 13.7078 349.5279 347.1214 312.0820 
-8.9650 93.2957 120.1416 357.2677 343.6754 203.8059 3.5801 349.4984 0.1147 3.1679 11.1224 359.4913 345.8904 344.7163 351.0712 5.0731 6.3671 352.6878 339.8093 357.5376 13.8719 318.5035 58.1806 340.9143 12.1816 355.3506 318.5164 91.0570 355.8215 348.8470 26.4263 356.2062 343.9449 40.9347 44.3130 8.4830 334.7363 351.8390 35.0887 269.8718 355.8480 2.3088 356.9525 1.2697 357.4362 358.6164 7.1824 4.7357 344.4807 351.4700 9.6848 345.7020 335.4617 3.2021 12.5343 21.8940 13.6269 349.2474 347.3790 311.9466 
-8.8836 93.3476 119.8924 357.1763 343.5432 203.8418 3.5122 349.4913 0.1232 3.2825 11.0549 359.4944 345.9382 344.8798 351.0310 5.1802 6.4541 352.6097 339.8073 357.5371 13.8747 318.6895 58.2672 340.6921 12.3193 355.2816 318.2095 91.4655 356.2116 348.8303 26.3936 356.1865 343.8894 40.8436 44.4304 8.5145 334.7274 351.8869 35.1133 269.7249 355.7237 2.6911 356.9158 1.1318 357.3313 358.6101 7.4437 4.6296 344.4855 351.3937 9.7696 345.7397 335.5964 3.4956 12.5274 21.6874 13.4388 349.0661 347.5365 311.8800 
-8.8121 93.3968 119.6576 357.0705 343.4161 203.8738 3.4161 349.5013 0.1269 3.4134 10.9780 359.4996 346.0701 344.9917 351.0035 5.1382 6.5929 352.5459 339.7839 357.5313 13.8769 318.9673 58.4131 340.3893 12.4619 355.1806 317.9655 91.6338 356.2218 349.0050 26.4251 356.1774 343.8802 40.6971 44.3248 8.4736 334.7957 351.8926 35.2554 269.6698 355.8165 2.5717 356.8320 0.9616 357.1986 358.6399 7.7689 4.5321 343.4346 351.3617 9.9272 345.7350 335.7224 3.6473 12.5007 21.5305 13.4060 348.9019 347.6573 311.7954 
-8.7345 93.4443 119.4091 356.9955 343.3163 203.9030 3.4721 349.5101 0.1292 3.3379 10.8627 359.4918 346.1710 345.2534 350.9855 5.2696 6.6396 352.4745 339.8410 357.5251 13.8213 318.9364 58.3811 340.4182 12.5532 355.1359 317.7033 92.1229 356.1398 349.2438 26.5103 356.1940 343.8763 40.6401 44.2400 8.4237 334.8983 351.9103 35.3371 269.6518 355.8154 2.6030 356.8042 0.8233 357.1463 358.6494 8.0598 4.3459 343.5805 351.3931 9.9937 345.7826 335.8901 3.7706 12.4495 21.3469 13.4064 348.7060 347.8052 311.7238 
-8.6484 93.4805 119.1698 356.9572 343.2337 203.9157 3.4542 349.5068 0.1127 3.4148 10.7846 359.4936 346.3057 345.4889 351.0034 5.3052 6.6519 352.4453 339.8707 357.5035 13.8687 319.1529 58.5989 340.1242 12.7553 355.0058 317.5479 92.4855 356.1097 349.5906 26.5039 356.1547 343.9224 40.6285 44.2059 8.3915 334.8413 351.9123 35.2952 269.7035 355.7486 2.3802 356.8398 0.7147 357.0830 358.5839 8.3020 4.2212 343.8459 351.3131 10.2012 345.8851 336.0324 3.8764 12.3780 21.1962 13.4495 348.5590 347.8655 311.6571 
-8.5809 93.5279 118.9506 356.8801 343.1387 203.9664 3.3798 349.5071 0.1335 3.5261 10.7226 359.4901 346.3232 345.6373 350.9473 5.4093 6.7609 352.3540 339.8303 357.5289 13.8795 319.4219 58.7100 339.8438 12.8437 354.9714 317.3275 92.8354 356.1022 349.8852 26.5376 356.1862 343.9043 40.4920 44.1602 8.4042 334.9439 351.9301 35.3367 269.7562 355.7680 2.4147 356.7830 0.5893 357.0338 358.5351 8.5350 4.3020 343.5590 351.1609 10.2438 345.8853 336.1846 3.8592 12.3174 21.0757 13.5646 348.4561 347.8800 311.5916 
-8.5143 93.5708 118.7244 356.8177 343.0707 204.0029 3.3257 349.4826 0.1366 3.6171 10.7485 359.5051 346.4339 345.6865 350.8882 5.4214 6.9001 352.2654 339.7106 357.5198 13.7933 319.6385 58.4605 339.7248 12.7541 354.9880 317.0884 92.9443 356.0011 349.7372 26.5014 356.1675 343.8424 40.4975 44.0736 8.4665 334.9438 351.8957 35.3132 269.7260 355.7151 2.7694 356.7448 0.5112 357.0536 358.5589 8.6323 4.0847 343.7192 350.9463 10.1870 345.9269 336.3831 3.9291 12.2607 20.8843 13.5792 348.3789 347.8725 311.5336 
-8.4517 93.6157 118.5171 356.7576 343.0014 204.0377 3.2748 349.5512 0.1740 3.6531 10.6076 359.5713 346.7007 345.7684 350.8481 5.2711 7.0854 352.1811 339.6924 357.5441 13.7863 319.9531 58.6217 339.4552 12.9225 354.8857 316.9093 92.7194 356.0573 349.6365 26.5032 356.1378 343.7820 40.5533 43.9871 8.3886 334.9209 351.9039 35.2972 269.6708 355.7522 2.4685 356.6739 0.4257 357.0959 358.6139 8.5741 3.8412 344.2759 350.8438 9.8780 345.9504 336.5667 3.9021 12.1942 20.7126 13.6600 348.2999 347.8833 311.4720 
-8.3982 93.6594 118.3033 356.6899 342.9609 204.0599 3.2497 349.5594 0.1938 3.6741 10.5610 359.5730 346.8291 345.9791 350.8083 5.3132 7.1005 352.0996 339.7104 357.4986 13.7201 319.9717 58.6953 339.3913 13.1439 354.7399 316.8743 91.8385 355.7536 349.2466 26.5622 356.1620 343.8622 40.6185 43.7484 8.1369 335.0857 351.9556 35.4377 269.5469 355.8583 2.5998 356.5883 0.3729 357.1285 358.6484 8.4926 3.8081 344.5589 350.5709 9.4387 345.9791 336.7874 3.8423 12.1142 20.5453 13.8437 348.2405 347.8642 311.3774 
-8.3377 93.7025 118.0859 356.6449 342.9331 204.0732 3.2364 349.5570 0.1984 3.6827 10.5555 359.6080 346.6568 346.1781 350.7148 5.8510 7.0966 351.9721 339.7077 357.5268 13.7507 320.3102 58.7968 339.0170 13.1937 354.7403 316.6822 92.5537 356.1444 349.6001 26.6411 356.1748 343.8336 40.4840 43.6762 8.2169 335.1676 351.9711 35.3642 269.6249 355.8267 2.5696 356.5433 0.3216 357.1693 358.5805 8.2925 3.7777 344.7932 350.3005 9.2856 346.0433 337.0244 3.9323 12.0882 20.3184 13.9046 348.1368 347.9148 311.3066 
-8.2875 93.7492 117.8783 356.5806 342.9085 204.0628 3.2291 349.5507 0.2250 3.7049 10.5952 359.5934 346.6169 346.1805 350.6654 5.9648 7.2460 351.9132 339.6658 357.4961 13.8228 320.6048 58.8627 338.6803 13.3851 354.6272 316.6707 91.3799 355.9498 349.1006 26.6208 356.1450 343.8392 40.5042 43.7533 8.2640 335.0347 351.9322 35.2012 269.6550 355.7668 2.6924 356.5891 0.4757 356.9611 358.2849 7.7216 3.5665 343.2921 350.1882 9.7206 346.0969 337.2564 3.9216 12.0044 20.1275 14.0221 348.1093 347.8699 311.2475 
-8.2888 93.8043 117.6047 356.3829 343.0439 203.9798 3.1822 349.6230 0.3003 3.7053 10.6943 359.5798 346.6201 346.3281 350.6514 6.0547 7.3176 351.8739 339.6369 357.5178 13.8716 320.7780 58.8719 338.4668 13.4319 354.6103 316.5962 90.9716 355.9777 348.9353 26.6462 356.1734 343.8875 40.4516 43.7677 8.2070 335.1012 352.0128 35.1407 269.6305 355.7161 2.6762 356.4144 0.4416 356.5145 358.1417 7.9738 3.7823 343.3875 349.5947 9.9665 346.1140 337.8327 4.4089 12.0471 19.6406 13.7599 348.1090 347.8494 311.1678 
-8.1910 93.8433 117.4947 356.4619 342.8372 204.0557 3.1480 349.5489 0.2348 3.7403 10.5298 359.6768 346.7863 346.5390 350.5681 5.9979 7.2944 351.7421 339.6499 357.5210 13.7119 320.7604 58.8750 338.4780 13.5747 354.5226 316.3470 91.4038 356.5306 349.2588 26.6617 356.1398 343.8354 40.5811 43.5899 8.0716 335.0326 351.9993 35.0894 269.5722 355.8355 2.4133 356.2651 359.6366 356.4418 358.1623 8.5816 3.7966 342.6270 349.1368 10.2192 346.2131 337.7341 4.3061 11.9167 19.5622 13.7770 348.1185 347.7608 311.1995 
-8.1441 93.8901 117.3029 356.4072 342.8260 204.0620 3.1042 349.5623 0.3171 3.8034 10.4938 359.6384 346.6810 346.6540 350.5807 6.1674 7.3565 351.7520 339.6206 357.4850 13.8574 320.9551 58.9945 338.2104 13.7181 354.4535 316.4435 90.7299 356.2058 349.0868 26.6323 356.1688 343.9765 40.6504 43.5932 7.9038 335.1237 352.0208 35.0497 269.5682 355.9026 2.4144 356.1249 359.4815 356.3948 358.1269 8.4906 3.7135 343.0022 348.9585 10.5862 346.2983 338.0060 4.3733 11.8046 19.2553 13.3639 348.2472 347.6571 311.5611 
-8.1112 93.9388 117.1131 356.3280 342.8339 204.0468 3.0771 349.5711 0.3185 3.7881 10.5002 359.6546 346.7564 346.7188 350.5271 6.1064 7.5368 351.6681 339.6967 357.5242 13.8450 320.9198 59.1155 338.0114 13.8592 354.4148 316.5923 90.4149 355.7282 349.3496 26.6197 356.1433 343.8802 40.6703 43.7062 7.9749 335.0222 352.0144 34.8389 269.6381 355.8320 2.4015 355.9322 359.3390 356.3710 358.2518 8.4513 3.4172 343.3193 348.6144 10.7604 346.3553 338.3049 4.4774 11.7214 18.9298 12.8690 348.3542 347.5663 311.9960 
